PathFileType	4	(x/y/z)	S10_PSF_T15
DataRate	CameraRate	NumFrames	NumMarkers	Units	OrigDataRate	OrigDataStartFrame	OrigNumFrames
240	240	9	51	mm	240	1	439
Frame#	Time	Sternum			R.Acromium			L.Acromium			Top.Head			R.ASIS			L.ASIS			R.PSIS			L.PSIS			R.Great.Tro			L.Great.Tro			R.Iliac.Crest			L.Iliac.Crest			V.Sacral			R.Thigh.Upper.Post			R.Thigh.Lower.Ant			R.Thigh.Lower.Post			R.Thigh.Upper.Ant			R.Knee.Lat			R.Knee.Med			R.Shank.Upper.Post			R.Shank.Lower.Ant			R.Shank.Lower.Post			R.Shank.Upper.Ant			R.Ankle.Lat			R.Ankle.Med			R.Heel.Upper			R.Heel.Med			R.Heel.Lat			R.Toe.Lat			R.Toe.Med			R.Toe.Tip			L.Thigh.Upper.Post			L.Thigh.Lower.Ant			L.Thigh.Lower.Post			L.Thigh.Upper.Ant			L.Knee.Lat			L.Knee.Med			L.Shank.Upper.Post			L.Shank.Lower.Ant			L.Shank.Lower.Post			L.Shank.Upper.Ant			L.Ankle.Lat			L.Ankle.Med			L.Heel.Upper			L.Heel.Med			L.Heel.Lat			L.Toe.Lat			L.Toe.Med			L.Toe.Tip			Cervical.Spine			Back			
		X1	Y1	Z1	X2	Y2	Z2	X3	Y3	Z3	X4	Y4	Z4	X5	Y5	Z5	X6	Y6	Z6	X7	Y7	Z7	X8	Y8	Z8	X9	Y9	Z9	X10	Y10	Z10	X11	Y11	Z11	X12	Y12	Z12	X13	Y13	Z13	X14	Y14	Z14	X15	Y15	Z15	X16	Y16	Z16	X17	Y17	Z17	X18	Y18	Z18	X19	Y19	Z19	X20	Y20	Z20	X21	Y21	Z21	X22	Y22	Z22	X23	Y23	Z23	X24	Y24	Z24	X25	Y25	Z25	X26	Y26	Z26	X27	Y27	Z27	X28	Y28	Z28	X29	Y29	Z29	X30	Y30	Z30	X31	Y31	Z31	X32	Y32	Z32	X33	Y33	Z33	X34	Y34	Z34	X35	Y35	Z35	X36	Y36	Z36	X37	Y37	Z37	X38	Y38	Z38	X39	Y39	Z39	X40	Y40	Z40	X41	Y41	Z41	X42	Y42	Z42	X43	Y43	Z43	X44	Y44	Z44	X45	Y45	Z45	X46	Y46	Z46	X47	Y47	Z47	X48	Y48	Z48	X49	Y49	Z49	X50	Y50	Z50	X51	Y51	Z51	

1	0	NaN	NaN	NaN	-1567.3	1408.2	486.8	-1607.7	1434	181.61	-1623.3	1727	353.66	NaN	NaN	NaN	NaN	NaN	NaN	NaN	NaN	NaN	NaN	NaN	NaN	-1616	908.94	509.3	-1569.1	941.05	145.98	-1622.4	1062.6	481.27	NaN	NaN	NaN	-1741.5	976.31	303.86	NaN	NaN	NaN	-1653.3	613.66	459.15	NaN	NaN	NaN	-1618.8	693.88	478.95	-1766.3	517.74	431.48	-1754.5	525.86	301.87	-1890.6	320.2	417.07	NaN	NaN	NaN	-1922.4	255.47	404.74	-1826	315.2	410.26	-1925	138.06	380.29	-1918.3	156.33	300.94	-2007.5	103.31	331.04	-2001.4	75.242	302.1	-2005.4	75.301	363.13	-1837.3	44.602	406.32	-1809.3	50.399	297.73	-1750	57.869	339.76	-1524.1	661.17	150.66	-1424.8	610.37	170.06	-1491.6	572.7	171.72	NaN	NaN	NaN	-1424.6	508.33	182.27	NaN	NaN	NaN	-1383.4	290.21	191.88	-1281.6	246.18	202.43	-1345.6	222.55	205.72	-1323.9	309.3	191.98	-1256.5	125.22	218.9	-1245.5	150.25	303.36	-1294.6	67.397	270.25	-1270.1	50.057	302.74	-1274	44.271	238.91	-1115.1	115.79	194.82	NaN	NaN	NaN	-1057.3	179.53	250.73	-1667.3	1476.3	355.85	-1753	1269.3	344.41
2	0.0041667	NaN	NaN	NaN	-1562.5	1407.5	486.37	-1602.6	1433.1	181.1	-1618.5	1726.3	353.41	NaN	NaN	NaN	NaN	NaN	NaN	NaN	NaN	NaN	NaN	NaN	NaN	-1610.7	908.14	509.06	-1564	940.6	145.79	-1617.1	1061.8	481.09	NaN	NaN	NaN	-1736.2	975.59	303.63	NaN	NaN	NaN	-1648.2	613.03	458.98	NaN	NaN	NaN	-1613.5	693.21	478.64	-1761.6	517.17	431.4	-1749.6	525.19	301.84	-1888.6	321.36	417.14	NaN	NaN	NaN	-1919.3	256.31	405.03	-1822.8	315.22	410.02	-1924.6	139.48	380.37	-1917.1	157.25	301.23	-2006.7	104.99	331.38	-2000.8	77.002	302.36	-2004.9	76.901	363.39	-1837.1	44.629	406.37	-1809	50.411	297.82	-1749.3	57.765	339.54	-1517.9	660.75	150.67	-1418.7	610.1	170.68	-1485.5	572.35	172.03	NaN	NaN	NaN	-1418.5	507.95	182.95	NaN	NaN	NaN	-1378.9	289.61	192.17	-1277.7	244.69	203.45	-1341.9	221.54	206.16	-1319.3	308.18	192.95	-1253.8	123.91	219.5	-1243.2	148.18	304.27	-1292.6	66.684	270.59	-1268.2	48.54	303.09	-1272.2	43.435	239.19	-1112.6	113.75	195.89	NaN	NaN	NaN	-1054.5	176.55	252.3	-1662.4	1475.6	355.29	-1747.8	1268.4	344.03
3	0.0083333	NaN	NaN	NaN	-1557.4	1406.8	485.91	-1597.2	1432.1	180.56	-1613.6	1725.5	353.14	NaN	NaN	NaN	NaN	NaN	NaN	NaN	NaN	NaN	NaN	NaN	NaN	-1605	907.32	508.81	-1558.6	940.14	145.58	-1611.6	1061	480.91	NaN	NaN	NaN	-1730.6	974.84	303.4	NaN	NaN	NaN	-1642.9	612.37	458.79	NaN	NaN	NaN	-1608	692.51	478.3	-1756.7	516.57	431.31	-1744.5	524.49	301.81	-1886.4	322.53	417.22	NaN	NaN	NaN	-1916	257.18	405.32	-1819.4	315.27	409.77	-1924.1	140.96	380.46	-1915.7	158.22	301.53	-2005.9	106.77	331.73	-2000.1	78.87	302.63	-2004.3	78.604	363.66	-1836.9	44.657	406.43	-1808.8	50.422	297.92	-1748.9	57.498	339.42	-1511.5	660.31	150.7	-1412.3	609.83	171.34	-1479.1	571.98	172.37	NaN	NaN	NaN	-1412.2	507.56	183.65	NaN	NaN	NaN	-1374.2	289	192.46	-1273.6	243.16	204.51	-1338	220.51	206.59	-1314.6	307.02	193.95	-1251	122.58	220.09	-1240.7	146.05	305.19	-1290.5	66.02	270.93	-1266.4	47.05	303.44	-1270.4	42.633	239.47	-1110.1	111.54	196.94	NaN	NaN	NaN	-1051.6	173.34	253.87	-1657.2	1474.8	354.7	-1742.4	1267.5	343.62
4	0.0125	NaN	NaN	NaN	-1552.2	1406.1	485.44	-1591.7	1431.1	179.99	-1608.5	1724.8	352.85	NaN	NaN	NaN	NaN	NaN	NaN	NaN	NaN	NaN	NaN	NaN	NaN	-1599.2	906.48	508.55	-1553	939.66	145.37	-1605.9	1060.2	480.72	NaN	NaN	NaN	-1724.8	974.07	303.16	NaN	NaN	NaN	-1637.4	611.67	458.58	NaN	NaN	NaN	-1602.3	691.79	477.93	-1751.5	515.94	431.21	-1739.1	523.76	301.76	-1883.9	323.69	417.31	NaN	NaN	NaN	-1912.8	258.07	405.61	-1815.8	315.33	409.52	-1923.4	142.51	380.57	-1914.3	159.24	301.85	-2004.9	108.65	332.09	-1999.5	80.843	302.91	-2003.7	80.41	363.94	-1836.6	44.688	406.49	-1808.5	50.434	298.03	-1748.5	57.394	339.25	-1504.9	659.88	150.74	-1405.7	609.55	172.04	-1472.6	571.62	172.72	NaN	NaN	NaN	-1405.7	507.18	184.38	NaN	NaN	NaN	-1369.4	288.37	192.76	-1269.5	241.59	205.58	-1334	219.46	207.01	-1309.7	305.85	194.97	-1248.2	121.23	220.66	-1238.2	143.88	306.1	-1288.4	65.426	271.27	-1264.6	45.616	303.77	-1268.6	41.887	239.76	-1107.6	109.16	197.98	NaN	NaN	NaN	-1048.6	169.9	255.38	-1651.8	1474.1	354.07	-1736.9	1266.6	343.19
5	0.016667	NaN	NaN	NaN	-1546.8	1405.4	484.94	-1586	1430.2	179.39	-1603.2	1724	352.55	NaN	NaN	NaN	NaN	NaN	NaN	NaN	NaN	NaN	NaN	NaN	NaN	-1593.2	905.61	508.28	-1547.1	939.17	145.14	-1599.9	1059.3	480.53	NaN	NaN	NaN	-1718.8	973.31	302.92	NaN	NaN	NaN	-1631.6	610.96	458.35	NaN	NaN	NaN	-1596.4	691.05	477.54	-1746.1	515.28	431.1	-1733.6	522.99	301.7	-1881.1	324.83	417.43	NaN	NaN	NaN	-1909.4	258.97	405.9	-1812.1	315.41	409.27	-1922.7	144.1	380.71	-1912.9	160.32	302.18	-2003.9	110.62	332.47	-1998.7	82.921	303.2	-2003.1	82.317	364.22	-1836.4	44.722	406.55	-1808.2	50.447	298.13	-1748.3	57.217	339.16	-1498	659.45	150.8	-1399	609.27	172.78	-1465.8	571.26	173.09	NaN	NaN	NaN	-1399	506.8	185.12	-1381.7	511.05	309.51	-1364.5	287.74	193.07	-1265.3	239.99	206.66	-1329.9	218.42	207.41	-1304.7	304.67	195.99	-1245.2	119.87	221.2	-1235.5	141.71	306.98	-1286.2	64.92	271.61	-1262.7	44.266	304.1	-1266.8	41.215	240.03	-1105	106.61	198.97	NaN	NaN	NaN	-1045.4	166.23	256.82	-1646.3	1473.3	353.41	-1731.1	1265.6	342.75
6	0.020833	NaN	NaN	NaN	-1541.3	1404.7	484.43	-1580.1	1429.2	178.77	-1597.9	1723.2	352.24	NaN	NaN	NaN	NaN	NaN	NaN	NaN	NaN	NaN	NaN	NaN	NaN	-1587.1	904.73	508	-1541.1	938.67	144.91	-1593.8	1058.5	480.32	NaN	NaN	NaN	-1712.7	972.54	302.67	NaN	NaN	NaN	-1625.8	610.21	458.11	NaN	NaN	NaN	-1590.3	690.3	477.12	-1740.6	514.59	430.98	-1727.8	522.2	301.62	-1878.1	325.94	417.56	NaN	NaN	NaN	-1906	259.88	406.2	-1808.2	315.52	409.02	-1921.8	145.75	380.86	-1911.3	161.44	302.53	-2002.8	112.7	332.85	-1997.9	85.102	303.49	-2002.3	84.329	364.51	-1836.1	44.76	406.62	-1807.9	50.461	298.25	-1749.1	56.3	339.65	-1491.1	659.03	150.87	-1392.2	608.98	173.56	-1458.9	570.92	173.46	NaN	NaN	NaN	-1392.3	506.42	185.88	-1375.9	511.11	309.62	-1359.6	287.09	193.38	-1261	238.38	207.73	-1325.8	217.38	207.79	-1299.6	303.5	197	-1242.3	118.53	221.7	-1232.8	139.55	307.82	-1284	64.52	271.95	-1261	43.025	304.41	-1265.1	40.633	240.3	-1102.4	103.9	199.9	NaN	NaN	NaN	-1042.3	162.33	258.16	-1640.7	1472.5	352.72	-1725.3	1264.7	342.29
7	0.025	NaN	NaN	NaN	-1535.8	1404	483.9	-1574.1	1428.2	178.13	-1592.4	1722.4	351.91	NaN	NaN	NaN	NaN	NaN	NaN	NaN	NaN	NaN	NaN	NaN	NaN	-1580.8	903.85	507.72	-1535	938.18	144.66	-1587.5	1057.7	480.11	NaN	NaN	NaN	-1706.4	971.77	302.41	NaN	NaN	NaN	-1619.7	609.45	457.84	NaN	NaN	NaN	-1584.1	689.54	476.68	-1734.8	513.87	430.85	-1721.9	521.37	301.52	-1874.7	327.01	417.71	NaN	NaN	NaN	-1902.7	260.77	406.5	-1804.2	315.65	408.79	-1920.9	147.44	381.04	-1909.7	162.61	302.88	-2001.6	114.86	333.23	-1997.1	87.389	303.78	-2001.5	86.448	364.81	-1835.8	44.802	406.68	-1807.5	50.475	298.36	NaN	NaN	NaN	-1484	658.63	150.95	-1385.3	608.7	174.36	-1451.9	570.59	173.85	NaN	NaN	NaN	-1385.4	506.07	186.63	-1369.9	511.15	309.77	-1354.6	286.45	193.7	-1256.7	236.79	208.78	-1321.5	216.37	208.14	-1294.5	302.34	198	-1239.2	117.22	222.16	-1230.1	137.41	308.62	-1281.8	64.238	272.27	-1259.2	41.911	304.69	-1263.4	40.155	240.55	-1099.9	101.03	200.75	NaN	NaN	NaN	-1039	158.23	259.39	-1635	1471.6	352	-1719.3	1263.7	341.82
8	0.029167	NaN	NaN	NaN	-1530.2	1403.4	483.35	-1568.1	1427.3	177.47	-1586.9	1721.6	351.58	NaN	NaN	NaN	NaN	NaN	NaN	NaN	NaN	NaN	NaN	NaN	NaN	-1574.4	902.96	507.43	-1528.7	937.7	144.41	-1581.1	1056.8	479.9	NaN	NaN	NaN	-1700	971.03	302.15	NaN	NaN	NaN	-1613.6	608.66	457.56	NaN	NaN	NaN	-1577.7	688.77	476.22	-1729	513.12	430.72	-1715.9	520.53	301.41	-1871.1	328.03	417.89	NaN	NaN	NaN	-1899.3	261.64	406.8	-1800	315.81	408.57	-1919.7	149.17	381.24	-1908	163.83	303.24	-2000.4	117.13	333.62	-1996.1	89.782	304.07	-2000.7	88.678	365.1	-1835.5	44.849	406.75	-1807.1	50.492	298.47	NaN	NaN	NaN	-1476.9	658.26	151.05	-1378.3	608.43	175.19	-1444.9	570.28	174.23	NaN	NaN	NaN	-1378.5	505.74	187.37	-1363.8	511.16	309.96	-1349.6	285.82	194.02	-1252.3	235.21	209.8	-1317.2	215.39	208.45	-1289.3	301.21	198.98	-1236.2	115.94	222.55	-1227.2	135.33	309.36	-1279.5	64.082	272.58	-1257.6	40.938	304.96	-1261.7	39.787	240.79	-1097.4	98.021	201.52	NaN	NaN	NaN	-1035.7	153.93	260.47	-1629.2	1470.8	351.26	-1713.2	1262.7	341.33
9	0.033333	NaN	NaN	NaN	-1524.5	1402.8	482.79	-1562	1426.3	176.78	-1581.4	1720.9	351.23	NaN	NaN	NaN	NaN	NaN	NaN	NaN	NaN	NaN	NaN	NaN	NaN	-1567.9	902.07	507.13	-1522.3	937.23	144.15	-1574.6	1056	479.68	NaN	NaN	NaN	-1693.5	970.3	301.88	NaN	NaN	NaN	-1607.3	607.86	457.26	NaN	NaN	NaN	-1571.3	688	475.74	-1722.9	512.34	430.58	-1709.6	519.65	301.29	-1867.1	329.01	418.09	NaN	NaN	NaN	-1896	262.47	407.11	-1795.7	315.98	408.37	-1918.5	150.94	381.47	-1906.1	165.1	303.61	-1999	119.5	334	-1995.1	92.287	304.37	-1999.7	91.023	365.4	-1835.2	44.903	406.81	-1806.7	50.51	298.59	NaN	NaN	NaN	-1469.7	657.92	151.15	-1371.3	608.17	176.04	-1437.8	570	174.61	NaN	NaN	NaN	-1371.6	505.44	188.1	-1357.6	511.14	310.18	-1344.7	285.21	194.35	-1248	233.68	210.77	-1312.9	214.46	208.72	-1284.2	300.13	199.92	-1233.2	114.71	222.89	-1224.3	133.32	310.04	-1277.3	64.057	272.87	-1256	40.117	305.2	-1260.2	39.536	241.02	-1095	94.881	202.2	NaN	NaN	NaN	-1032.4	149.45	261.4	-1623.3	1470.1	350.49	-1707.1	1261.8	340.83
